<?xml version="1.0" encoding="UTF-8"?>
<svg version="1.1" xmlns="http://www.w3.org/2000/svg" width="613" height="662">
<path d="M0 0 C1.09014181 -0.00233999 1.09014181 -0.00233999 2.20230669 -0.00472724 C4.63248608 -0.00870905 7.06260276 -0.00555843 9.49278259 -0.00241089 C11.23757463 -0.00376626 12.98236638 -0.00554696 14.72715759 -0.00772095 C19.46512657 -0.01228144 24.20307378 -0.01051076 28.94104314 -0.00734186 C33.90689353 -0.00480832 38.87274207 -0.00715884 43.83859253 -0.00872803 C52.18540277 -0.010548 60.53220417 -0.00814916 68.87901306 -0.00338745 C78.50768498 0.00204236 88.13633568 0.00030115 97.76500708 -0.00521386 C106.04378504 -0.0097648 114.32255665 -0.01038548 122.60133547 -0.00777519 C127.54020722 -0.00622169 132.47906904 -0.00599287 137.41794014 -0.00931168 C142.06939043 -0.01221876 146.72081365 -0.01016294 151.37226105 -0.00441742 C153.07169742 -0.00310442 154.77113609 -0.00345886 156.47057152 -0.00568008 C158.80674554 -0.00844992 161.14283513 -0.00494035 163.47900391 0 C165.43268182 0.00056554 165.43268182 0.00056554 167.42582798 0.0011425 C172.85580764 0.16161599 178.27035896 0.6758515 183.6839447 1.12698364 C183.6839447 20.92698364 183.6839447 40.72698364 183.6839447 61.12698364 C187.6439447 61.12698364 191.6039447 61.12698364 195.6839447 61.12698364 C195.6839447 64.75698364 195.6839447 68.38698364 195.6839447 72.12698364 C191.7239447 72.12698364 187.7639447 72.12698364 183.6839447 72.12698364 C183.6839447 74.76698364 183.6839447 77.40698364 183.6839447 80.12698364 C170.8139447 80.12698364 157.9439447 80.12698364 144.6839447 80.12698364 C144.6839447 85.40698364 144.6839447 90.68698364 144.6839447 96.12698364 C148.3139447 96.12698364 151.9439447 96.12698364 155.6839447 96.12698364 C155.6839447 108.33698364 155.6839447 120.54698364 155.6839447 133.12698364 C152.0539447 133.12698364 148.4239447 133.12698364 144.6839447 133.12698364 C144.6839447 164.80698364 144.6839447 196.48698364 144.6839447 229.12698364 C147.3239447 229.12698364 149.9639447 229.12698364 152.6839447 229.12698364 C152.6839447 232.75698364 152.6839447 236.38698364 152.6839447 240.12698364 C150.0439447 240.12698364 147.4039447 240.12698364 144.6839447 240.12698364 C144.6839447 243.42698364 144.6839447 246.72698364 144.6839447 250.12698364 C145.4573822 250.05479614 146.2308197 249.98260864 147.0276947 249.90823364 C163.63590977 248.42829369 163.63590977 248.42829369 167.6839447 251.12698364 C167.97691345 253.50979614 167.97691345 253.50979614 167.8714447 256.25198364 C167.84437439 257.16206177 167.81730408 258.07213989 167.78941345 259.00979614 C167.75460876 259.70846802 167.71980408 260.40713989 167.6839447 261.12698364 C162.58095699 262.22746821 157.96312621 262.06949533 152.8089447 261.68948364 C152.0251947 261.63727661 151.2414447 261.58506958 150.4339447 261.53128052 C148.5168535 261.40269513 146.60032967 261.26569748 144.6839447 261.12698364 C144.6839447 262.44698364 144.6839447 263.76698364 144.6839447 265.12698364 C158.8739447 265.12698364 173.0639447 265.12698364 187.6839447 265.12698364 C187.6839447 270.07698364 187.6839447 275.02698364 187.6839447 280.12698364 C191.3139447 280.12698364 194.9439447 280.12698364 198.6839447 280.12698364 C198.6839447 292.33698364 198.6839447 304.54698364 198.6839447 317.12698364 C195.0539447 317.12698364 191.4239447 317.12698364 187.6839447 317.12698364 C187.6839447 326.36698364 187.6839447 335.60698364 187.6839447 345.12698364 C120.3639447 345.12698364 53.0439447 345.12698364 -16.3160553 345.12698364 C-16.3160553 343.14698364 -16.3160553 341.16698364 -16.3160553 339.12698364 C-20.2760553 339.12698364 -24.2360553 339.12698364 -28.3160553 339.12698364 C-29.4410553 329.37698364 -29.4410553 329.37698364 -28.3160553 327.12698364 C-24.3560553 327.12698364 -20.3960553 327.12698364 -16.3160553 327.12698364 C-16.32765686 326.20014771 -16.33925842 325.27331177 -16.35121155 324.31838989 C-16.3647467 322.5220813 -16.3647467 322.5220813 -16.3785553 320.68948364 C-16.39015686 319.49452271 -16.40175842 318.29956177 -16.41371155 317.06838989 C-16.3160553 314.12698364 -16.3160553 314.12698364 -15.3160553 313.12698364 C-11.3560553 313.12698364 -7.3960553 313.12698364 -3.3160553 313.12698364 C-3.3160553 303.55698364 -3.3160553 293.98698364 -3.3160553 284.12698364 C-7.6060553 284.12698364 -11.8960553 284.12698364 -16.3160553 284.12698364 C-16.3160553 277.85698364 -16.3160553 271.58698364 -16.3160553 265.12698364 C-1.7960553 265.12698364 12.7239447 265.12698364 27.6839447 265.12698364 C27.6839447 234.76698364 27.6839447 204.40698364 27.6839447 173.12698364 C22.0739447 173.12698364 16.4639447 173.12698364 10.6839447 173.12698364 C8.6839447 171.12698364 8.6839447 171.12698364 8.45347595 168.77932739 C8.46765564 167.88342896 8.48183533 166.98753052 8.4964447 166.06448364 C8.50289001 165.16600708 8.50933533 164.26753052 8.51597595 163.34182739 C8.6839447 161.12698364 8.6839447 161.12698364 9.6839447 160.12698364 C11.02661883 160.0406649 12.37368792 160.01991891 13.71910095 160.02932739 C14.81170227 160.03307373 14.81170227 160.03307373 15.92637634 160.03689575 C16.8569989 160.04599976 17.78762146 160.05510376 18.7464447 160.06448364 C23.1705072 160.09542114 23.1705072 160.09542114 27.6839447 160.12698364 C27.6839447 150.22698364 27.6839447 140.32698364 27.6839447 130.12698364 C31.6439447 130.12698364 35.6039447 130.12698364 39.6839447 130.12698364 C39.6839447 120.22698364 39.6839447 110.32698364 39.6839447 100.12698364 C36.0539447 100.12698364 32.4239447 100.12698364 28.6839447 100.12698364 C27.6839447 99.12698364 27.6839447 99.12698364 27.57041931 97.26931763 C27.57565613 96.47855835 27.58089294 95.68779907 27.58628845 94.87307739 C27.58951111 94.01907349 27.59273376 93.16506958 27.59605408 92.28518677 C27.60862244 90.93843872 27.60862244 90.93843872 27.6214447 89.56448364 C27.62595642 88.66278442 27.63046814 87.76108521 27.63511658 86.83206177 C27.64694246 84.59697051 27.6634225 82.36200928 27.6839447 80.12698364 C25.91966125 80.13483887 25.91966125 80.13483887 24.11973572 80.14285278 C19.77192439 80.16090027 15.4241164 80.17241472 11.07627869 80.18191528 C9.19150741 80.18695608 7.30674006 80.19378863 5.42198181 80.2024231 C2.71892834 80.21449981 0.01592639 80.22021433 -2.68714905 80.22463989 C-3.95902321 80.23238182 -3.95902321 80.23238182 -5.2565918 80.24028015 C-7.27676598 80.24047559 -9.29683464 80.18904575 -11.3160553 80.12698364 C-12.3160553 79.12698364 -12.3160553 79.12698364 -12.43630981 77.03260803 C-12.4329789 75.65027733 -12.4329789 75.65027733 -12.42958069 74.24002075 C-12.42950516 73.19901718 -12.42942963 72.15801361 -12.42935181 71.08546448 C-12.42419052 69.95318924 -12.41902924 68.820914 -12.41371155 67.65432739 C-12.4122966 66.501548 -12.41088165 65.34876862 -12.40942383 64.16105652 C-12.40380535 60.46217301 -12.39124971 56.763349 -12.3785553 53.06448364 C-12.37354268 50.56383347 -12.36897936 48.06318236 -12.36488342 45.56253052 C-12.35382992 39.41732776 -12.33707382 33.27215995 -12.3160553 27.12698364 C-13.08691467 27.13858521 -13.85777405 27.15018677 -14.6519928 27.16213989 C-16.15632874 27.17567505 -16.15632874 27.17567505 -17.6910553 27.18948364 C-18.68878967 27.20108521 -19.68652405 27.21268677 -20.7144928 27.22463989 C-23.3160553 27.12698364 -23.3160553 27.12698364 -25.3160553 26.12698364 C-25.3430596 24.66875153 -25.36245316 23.21037689 -25.3785553 21.75198364 C-25.39015686 20.93987427 -25.40175842 20.12776489 -25.41371155 19.29104614 C-25.3160553 17.12698364 -25.3160553 17.12698364 -24.3160553 15.12698364 C-20.3560553 15.12698364 -16.3960553 15.12698364 -12.3160553 15.12698364 C-12.3160553 10.50698364 -12.3160553 5.88698364 -12.3160553 1.12698364 C-7.95572263 0.25491711 -4.41052096 0.00127932 0 0 Z " fill="#030102" transform="translate(221.31605529785156,133.87301635742188)"/>
<path d="M0 0 C-0.33 5.61 -0.66 11.22 -1 17 C-5.29 17 -9.58 17 -14 17 C-14 19.64 -14 22.28 -14 25 C-9.71 25 -5.42 25 -1 25 C-1 42.49 -1 59.98 -1 78 C12.2 78 25.4 78 39 78 C39 84.6 39 91.2 39 98 C42.96 98 46.92 98 51 98 C51 108.89 51 119.78 51 131 C47.04 131 43.08 131 39 131 C39 141.23 39 151.46 39 162 C32.73 162 26.46 162 20 162 C20 165.3 20 168.6 20 172 C21.65 171.67 23.3 171.34 25 171 C29.62 171 34.24 171 39 171 C39 202.35 39 233.7 39 266 C24.48 266 9.96 266 -5 266 C-5 271.28 -5 276.56 -5 282 C-0.71 282 3.58 282 8 282 C8 292.89 8 303.78 8 315 C3.71 315 -0.58 315 -5 315 C-5 319.62 -5 324.24 -5 329 C-9.29 329 -13.58 329 -18 329 C-17.67 331.64 -17.34 334.28 -17 337 C-13.04 337.33 -9.08 337.66 -5 338 C-5 339.98 -5 341.96 -5 344 C54.4 344 113.8 344 175 344 C175 344.33 175 344.66 175 345 C110.65 345 46.3 345 -20 345 C-20 343.02 -20 341.04 -20 339 C-23.96 339 -27.92 339 -32 339 C-33.125 329.25 -33.125 329.25 -32 327 C-28.04 327 -24.08 327 -20 327 C-20.01160156 326.07316406 -20.02320313 325.14632813 -20.03515625 324.19140625 C-20.04869141 322.39509766 -20.04869141 322.39509766 -20.0625 320.5625 C-20.07410156 319.36753906 -20.08570313 318.17257812 -20.09765625 316.94140625 C-20 314 -20 314 -19 313 C-15.04 313 -11.08 313 -7 313 C-7 303.43 -7 293.86 -7 284 C-11.29 284 -15.58 284 -20 284 C-20 277.73 -20 271.46 -20 265 C-5.48 265 9.04 265 24 265 C24 234.64 24 204.28 24 173 C18.39 173 12.78 173 7 173 C5 171 5 171 4.76953125 168.65234375 C4.78371094 167.75644531 4.79789063 166.86054688 4.8125 165.9375 C4.81894531 165.03902344 4.82539063 164.14054688 4.83203125 163.21484375 C5 161 5 161 6 160 C7.34267413 159.91368126 8.68974322 159.89293527 10.03515625 159.90234375 C11.12775757 159.90609009 11.12775757 159.90609009 12.24243164 159.90991211 C13.1730542 159.91901611 14.10367676 159.92812012 15.0625 159.9375 C19.4865625 159.9684375 19.4865625 159.9684375 24 160 C24 150.1 24 140.2 24 130 C27.96 130 31.92 130 36 130 C36 120.1 36 110.2 36 100 C32.37 100 28.74 100 25 100 C24 99 24 99 23.88647461 97.14233398 C23.89171143 96.35157471 23.89694824 95.56081543 23.90234375 94.74609375 C23.90556641 93.89208984 23.90878906 93.03808594 23.91210938 92.15820312 C23.92467773 90.81145508 23.92467773 90.81145508 23.9375 89.4375 C23.94201172 88.53580078 23.94652344 87.63410156 23.95117188 86.70507812 C23.96299775 84.46998686 23.9794778 82.23502563 24 80 C22.23571655 80.00785522 22.23571655 80.00785522 20.43579102 80.01586914 C16.08797969 80.03391663 11.7401717 80.04543108 7.39233398 80.05493164 C5.5075627 80.05997244 3.62279535 80.06680498 1.73803711 80.07543945 C-0.96501636 80.08751617 -3.66801831 80.09323068 -6.37109375 80.09765625 C-7.64296791 80.10539818 -7.64296791 80.10539818 -8.9405365 80.11329651 C-10.96071068 80.11349195 -12.98077934 80.06206211 -15 80 C-16 79 -16 79 -16.12025452 76.90562439 C-16.1169236 75.52329369 -16.1169236 75.52329369 -16.11352539 74.11303711 C-16.11344986 73.07203354 -16.11337433 72.03102997 -16.11329651 70.95848083 C-16.10813522 69.8262056 -16.10297394 68.69393036 -16.09765625 67.52734375 C-16.0962413 66.37456436 -16.09482635 65.22178497 -16.09336853 64.03407288 C-16.08775005 60.33518936 -16.07519442 56.63636536 -16.0625 52.9375 C-16.05748738 50.43684983 -16.05292406 47.93619871 -16.04882812 45.43554688 C-16.03777462 39.29034412 -16.02101852 33.14517631 -16 27 C-16.77085937 27.01160156 -17.54171875 27.02320313 -18.3359375 27.03515625 C-19.84027344 27.04869141 -19.84027344 27.04869141 -21.375 27.0625 C-22.37273437 27.07410156 -23.37046875 27.08570313 -24.3984375 27.09765625 C-27 27 -27 27 -29 26 C-29.0270043 24.54176788 -29.04639787 23.08339325 -29.0625 21.625 C-29.07410156 20.81289062 -29.08570313 20.00078125 -29.09765625 19.1640625 C-29 17 -29 17 -28 15 C-24.04 15 -20.08 15 -16 15 C-16 10.38 -16 5.76 -16 1 C-10.4484167 -0.11031666 -5.64927335 -0.06806353 0 0 Z " fill="#07F9E6" transform="translate(225,134)"/>
<path d="M0 0 C5.28 0.33 10.56 0.66 16 1 C16 20.8 16 40.6 16 61 C19.96 61 23.92 61 28 61 C28 64.63 28 68.26 28 72 C24.04 72 20.08 72 16 72 C16 74.64 16 77.28 16 80 C3.13 80 -9.74 80 -23 80 C-23 85.28 -23 90.56 -23 96 C-19.37 96 -15.74 96 -12 96 C-12 108.21 -12 120.42 -12 133 C-15.63 133 -19.26 133 -23 133 C-23 164.68 -23 196.36 -23 229 C-20.36 229 -17.72 229 -15 229 C-15 232.63 -15 236.26 -15 240 C-17.64 240 -20.28 240 -23 240 C-23 243.3 -23 246.6 -23 250 C-22.2265625 249.9278125 -21.453125 249.855625 -20.65625 249.78125 C-4.04803493 248.30131004 -4.04803493 248.30131004 0 251 C0.29296875 253.3828125 0.29296875 253.3828125 0.1875 256.125 C0.16042969 257.03507812 0.13335937 257.94515625 0.10546875 258.8828125 C0.07066406 259.58148438 0.03585937 260.28015625 0 261 C-5.29623639 262.2222084 -9.67679061 261.72589219 -15 261 C-15 257.7 -15 254.4 -15 251 C-22.59 251 -30.18 251 -38 251 C-38 247.04 -38 243.08 -38 239 C-35.03 239 -32.06 239 -29 239 C-29 236.36 -29 233.72 -29 231 C-29.63808594 231.01160156 -30.27617187 231.02320313 -30.93359375 231.03515625 C-31.75988281 231.04417969 -32.58617187 231.05320312 -33.4375 231.0625 C-34.26121094 231.07410156 -35.08492188 231.08570313 -35.93359375 231.09765625 C-38 231 -38 231 -39 230 C-39.09532328 226.92545239 -39.1255138 223.87340842 -39.11352539 220.79858398 C-39.11367142 219.83283447 -39.11381744 218.86708496 -39.1139679 217.87207031 C-39.11326834 214.66338901 -39.10547397 211.45476497 -39.09765625 208.24609375 C-39.09579222 206.02791882 -39.09436825 203.80974348 -39.09336853 201.59156799 C-39.08954216 195.74059929 -39.07971086 189.88965523 -39.06866455 184.03869629 C-39.05845299 178.07332696 -39.05387146 172.10795367 -39.04882812 166.14257812 C-39.03808869 154.42837456 -39.02101085 142.71418933 -39 131 C-35.04 131 -31.08 131 -27 131 C-27 120.44 -27 109.88 -27 99 C-30.63 99 -34.26 99 -38 99 C-38 92.07 -38 85.14 -38 78 C-25.13 78 -12.26 78 1 78 C1 75.36 1 72.72 1 70 C4.63 70 8.26 70 12 70 C12 67.69 12 65.38 12 63 C8.37 63 4.74 63 1 63 C0.67 42.21 0.34 21.42 0 0 Z " fill="#ED5966" transform="translate(389,134)"/>
<path d="M0 0 C3.96 0 7.92 0 12 0 C12 11.22 12 22.44 12 34 C7.05 34.495 7.05 34.495 2 35 C2.33 35 2.66 35 3 35 C5.97 35 8.94 35 12 35 C12.33 67.01 12.66 99.02 13 132 C15.97 132.33 18.94 132.66 22 133 C22.04241723 135.33294775 22.04092937 137.66702567 22 140 C21 141 21 141 19.15234375 141.09765625 C17.1015625 141.06510417 15.05078125 141.03255208 13 141 C13.495 146.94 13.495 146.94 14 153 C9.38 153 4.76 153 0 153 C0 149.04 0 145.08 0 141 C2.97 141 5.94 141 9 141 C9 138.36 9 135.72 9 133 C8.36191406 133.01160156 7.72382813 133.02320313 7.06640625 133.03515625 C6.24011719 133.04417969 5.41382813 133.05320312 4.5625 133.0625 C3.73878906 133.07410156 2.91507812 133.08570313 2.06640625 133.09765625 C0 133 0 133 -1 132 C-1.09532328 128.92545239 -1.1255138 125.87340842 -1.11352539 122.79858398 C-1.11367142 121.83283447 -1.11381744 120.86708496 -1.1139679 119.87207031 C-1.11326834 116.66338901 -1.10547397 113.45476497 -1.09765625 110.24609375 C-1.09579222 108.02791882 -1.09436825 105.80974348 -1.09336853 103.59156799 C-1.08954216 97.74059929 -1.07971086 91.88965523 -1.06866455 86.03869629 C-1.05845299 80.07332696 -1.05387146 74.10795367 -1.04882812 68.14257812 C-1.03808869 56.42837456 -1.02101085 44.71418933 -1 33 C2.96 33 6.92 33 11 33 C11 22.44 11 11.88 11 1 C7.37 1 3.74 1 0 1 C0 0.67 0 0.34 0 0 Z " fill="#EA2F42" transform="translate(351,232)"/>
<path d="M0 0 C14.85 0 29.7 0 45 0 C45 0.33 45 0.66 45 1 C35.1 1 25.2 1 15 1 C15 6.28 15 11.56 15 17 C19.29 17 23.58 17 28 17 C28 27.89 28 38.78 28 50 C23.71 50 19.42 50 15 50 C15 54.62 15 59.24 15 64 C10.71 64 6.42 64 2 64 C2.33 66.64 2.66 69.28 3 72 C6.96 72.33 10.92 72.66 15 73 C15 74.98 15 76.96 15 79 C74.4 79 133.8 79 195 79 C195 79.33 195 79.66 195 80 C130.65 80 66.3 80 0 80 C0 78.02 0 76.04 0 74 C-3.96 74 -7.92 74 -12 74 C-13.125 64.25 -13.125 64.25 -12 62 C-8.04 62 -4.08 62 0 62 C-0.01160156 61.07316406 -0.02320313 60.14632812 -0.03515625 59.19140625 C-0.04417969 57.99386719 -0.05320313 56.79632813 -0.0625 55.5625 C-0.07410156 54.36753906 -0.08570313 53.17257812 -0.09765625 51.94140625 C0 49 0 49 1 48 C4.96 48 8.92 48 13 48 C13 38.43 13 28.86 13 19 C8.71 19 4.42 19 0 19 C0 12.73 0 6.46 0 0 Z " fill="#8AC5C1" transform="translate(205,399)"/>
<path d="M0 0 C2.29160319 -0.02692484 4.58329546 -0.04636124 6.875 -0.0625 C8.15117187 -0.07410156 9.42734375 -0.08570313 10.7421875 -0.09765625 C14 0 14 0 16 1 C16 2.32 16 3.64 16 5 C30.19 5 44.38 5 59 5 C59 9.95 59 14.9 59 20 C62.63 20 66.26 20 70 20 C70 32.21 70 44.42 70 57 C66.37 57 62.74 57 59 57 C59 66.24 59 75.48 59 85 C50 85 50 85 44 84 C44 74.43 44 64.86 44 55 C47.96 55 51.92 55 56 55 C56 44.11 56 33.22 56 22 C52.04 22 48.08 22 44 22 C44 16.72 44 11.44 44 6 C29.48 6 14.96 6 0 6 C0 4.02 0 2.04 0 0 Z " fill="#D73747" transform="translate(350,394)"/>
<path d="M0 0 C0 31.02 0 62.04 0 94 C-4.29 94 -8.58 94 -13 94 C-14.85581966 92.14418034 -14.12004366 89.50601694 -14.12442017 87.03713989 C-14.12082489 86.18046722 -14.11722961 85.32379456 -14.11352539 84.44116211 C-14.11367142 83.54368759 -14.11381744 82.64621307 -14.1139679 81.72154236 C-14.11326842 78.74011866 -14.10547441 75.7587566 -14.09765625 72.77734375 C-14.09579219 70.71611058 -14.09436823 68.65487696 -14.09336853 66.59364319 C-14.08954237 61.1569599 -14.07971126 55.72030314 -14.06866455 50.28363037 C-14.05845253 44.74052286 -14.05387136 39.19741108 -14.04882812 33.65429688 C-14.03808908 22.76951957 -14.02101149 11.88476198 -14 1 C-9.81537205 -1.09231398 -4.67855628 0 0 0 Z " fill="#03FBE6" transform="translate(263,306)"/>
<path d="M0 0 C5.28 0.33 10.56 0.66 16 1 C16 20.8 16 40.6 16 61 C19.96 61 23.92 61 28 61 C28 64.63 28 68.26 28 72 C24.04 72 20.08 72 16 72 C16 73.98 16 75.96 16 78 C11.05 78 6.1 78 1 78 C1 75.36 1 72.72 1 70 C4.63 70 8.26 70 12 70 C12 67.69 12 65.38 12 63 C8.37 63 4.74 63 1 63 C0.67 42.21 0.34 21.42 0 0 Z " fill="#C23140" transform="translate(389,134)"/>
<path d="M0 0 C0.33 0 0.66 0 1 0 C1 5.28 1 10.56 1 16 C-3.29 16 -7.58 16 -12 16 C-12 18.64 -12 21.28 -12 24 C-7.71 24 -3.42 24 1 24 C1 41.49 1 58.98 1 77 C0.34 76.34 -0.32 75.68 -1 75 C-2.485 75.495 -2.485 75.495 -4 76 C-6.31 76 -8.62 76 -11 76 C-11.33 59.5 -11.66 43 -12 26 C-15.96 25.67 -19.92 25.34 -24 25 C-24 24.34 -24 23.68 -24 23 C-20.37 23 -16.74 23 -13 23 C-13 16.07 -13 9.14 -13 2 C-10.63386544 0.81693272 -9.13219264 0.86645392 -6.5 0.875 C-5.30890625 0.87113281 -5.30890625 0.87113281 -4.09375 0.8671875 C-2 1 -2 1 0 2 C0 1.34 0 0.68 0 0 Z " fill="#04FBE6" transform="translate(223,135)"/>
<path d="M0 0 C3.96 0 7.92 0 12 0 C12 5.28 12 10.56 12 16 C16.29 16 20.58 16 25 16 C25 26.89 25 37.78 25 49 C20.71 49 16.42 49 12 49 C11.67 37.78 11.34 26.56 11 15 C7.37 15 3.74 15 0 15 C0 10.05 0 5.1 0 0 Z " fill="#04FBE6" transform="translate(208,400)"/>
<path d="M0 0 C3.3 0 6.6 0 10 0 C10.84071869 3.62320198 11.09858697 6.9016298 11.02172852 10.61645508 C10.99158409 12.26760063 10.99158409 12.26760063 10.96083069 13.95210266 C10.92027809 15.71797981 10.92027809 15.71797981 10.87890625 17.51953125 C10.85529526 18.73323898 10.83168427 19.94694672 10.80735779 21.19743347 C10.73086082 25.06924542 10.64677591 28.94085032 10.5625 32.8125 C10.50926537 35.43944304 10.45652506 38.06639614 10.40429688 40.69335938 C10.27526443 47.12903706 10.13942707 53.56453945 10 60 C6.7 59.67 3.4 59.34 0 59 C0 39.53 0 20.06 0 0 Z " fill="#FC3146" transform="translate(392,136)"/>
<path d="M0 0 C2.14576637 -0.02685938 4.29162645 -0.04633088 6.4375 -0.0625 C7.63246094 -0.07410156 8.82742188 -0.08570313 10.05859375 -0.09765625 C13 0 13 0 14 1 C14.1007812 3.36398468 14.13973215 5.69811311 14.1328125 8.0625 C14.13376923 8.76898682 14.13472595 9.47547363 14.13571167 10.20336914 C14.13639333 11.69970793 14.13454005 13.19604967 14.13037109 14.69238281 C14.12502257 16.99030157 14.13031651 19.28802486 14.13671875 21.5859375 C14.13605797 23.03645877 14.1347768 24.48697991 14.1328125 25.9375 C14.13483673 26.6291626 14.13686096 27.3208252 14.13894653 28.03344727 C14.11495224 32.88504776 14.11495224 32.88504776 13 34 C9.37 34 5.74 34 2 34 C2 43.57 2 53.14 2 63 C5.96 63 9.92 63 14 63 C14 53.43 14 43.86 14 34 C14.33 34 14.66 34 15 34 C15 43.9 15 53.8 15 64 C8.73 64 2.46 64 -4 64 C-4 67.3 -4 70.6 -4 74 C-1.525 73.505 -1.525 73.505 1 73 C5.62 73 10.24 73 15 73 C15 104.35 15 135.7 15 168 C14.67 168 14.34 168 14 168 C14 136.98 14 105.96 14 74 C8.06 74.495 8.06 74.495 2 75 C-1.38545069 75.10815333 -4.74142862 75.18476248 -8.125 75.1875 C-9.37796875 75.20586914 -9.37796875 75.20586914 -10.65625 75.22460938 C-12.77215212 75.22974506 -14.88772123 75.12388116 -17 75 C-19 73 -19 73 -19.23046875 70.65234375 C-19.21628906 69.75644531 -19.20210937 68.86054688 -19.1875 67.9375 C-19.18105469 67.03902344 -19.17460937 66.14054687 -19.16796875 65.21484375 C-19 63 -19 63 -18 62 C-16.65732587 61.91368126 -15.31025678 61.89293527 -13.96484375 61.90234375 C-12.87224243 61.90609009 -12.87224243 61.90609009 -11.75756836 61.90991211 C-10.8269458 61.91901611 -9.89632324 61.92812012 -8.9375 61.9375 C-4.5134375 61.9684375 -4.5134375 61.9684375 0 62 C0 52.1 0 42.2 0 32 C3.96 32 7.92 32 12 32 C12 22.1 12 12.2 12 2 C8.37 2 4.74 2 1 2 C0.67 1.34 0.34 0.68 0 0 Z " fill="#45DED2" transform="translate(249,232)"/>
<path d="M0 0 C1.46373047 0.01353516 1.46373047 0.01353516 2.95703125 0.02734375 C4.06111328 0.04474609 4.06111328 0.04474609 5.1875 0.0625 C4.1975 0.5575 4.1975 0.5575 3.1875 1.0625 C3.1875 1.7225 3.1875 2.3825 3.1875 3.0625 C-1.1025 3.0625 -5.3925 3.0625 -9.8125 3.0625 C-9.8125 9.9925 -9.8125 16.9225 -9.8125 24.0625 C-13.4425 24.0625 -17.0725 24.0625 -20.8125 24.0625 C-20.8125 24.7225 -20.8125 25.3825 -20.8125 26.0625 C-19.95785156 26.05089844 -19.10320312 26.03929687 -18.22265625 26.02734375 C-17.11792969 26.01832031 -16.01320312 26.00929687 -14.875 26 C-13.77285156 25.98839844 -12.67070312 25.97679687 -11.53515625 25.96484375 C-8.8125 26.0625 -8.8125 26.0625 -7.8125 27.0625 C-7.71923284 28.62797048 -7.69504418 30.19762772 -7.69897461 31.76586914 C-7.69905014 32.76683121 -7.69912567 33.76779327 -7.69920349 34.79908752 C-7.70436478 35.8876152 -7.70952606 36.97614288 -7.71484375 38.09765625 C-7.7162587 39.20604355 -7.71767365 40.31443085 -7.71913147 41.45640564 C-7.72474967 45.01263069 -7.73730525 48.56879383 -7.75 52.125 C-7.75501266 54.52929597 -7.75957597 56.93359292 -7.76367188 59.33789062 C-7.77472501 65.24611777 -7.79200184 71.15429837 -7.8125 77.0625 C-2.8625 76.5675 -2.8625 76.5675 2.1875 76.0625 C2.1875 60.2225 2.1875 44.3825 2.1875 28.0625 C2.5175 28.0625 2.8475 28.0625 3.1875 28.0625 C3.1875 44.5625 3.1875 61.0625 3.1875 78.0625 C11.7675 78.0625 20.3475 78.0625 29.1875 78.0625 C29.1875 78.7225 29.1875 79.3825 29.1875 80.0625 C23.65161467 80.08714775 18.115761 80.10533496 12.57983398 80.11743164 C10.6950627 80.12247244 8.81029535 80.12930498 6.92553711 80.13793945 C4.22248364 80.15001617 1.51948169 80.15573068 -1.18359375 80.16015625 C-2.45546791 80.16789818 -2.45546791 80.16789818 -3.7530365 80.17579651 C-5.77321068 80.17599195 -7.79327934 80.12456211 -9.8125 80.0625 C-10.8125 79.0625 -10.8125 79.0625 -10.93275452 76.96812439 C-10.9294236 75.58579369 -10.9294236 75.58579369 -10.92602539 74.17553711 C-10.92594986 73.13453354 -10.92587433 72.09352997 -10.92579651 71.02098083 C-10.92063522 69.8887056 -10.91547394 68.75643036 -10.91015625 67.58984375 C-10.9087413 66.43706436 -10.90732635 65.28428497 -10.90586853 64.09657288 C-10.90025005 60.39768936 -10.88769442 56.69886536 -10.875 53 C-10.86998738 50.49934983 -10.86542406 47.99869871 -10.86132812 45.49804688 C-10.85027462 39.35284412 -10.83351852 33.20767631 -10.8125 27.0625 C-11.58335937 27.07410156 -12.35421875 27.08570313 -13.1484375 27.09765625 C-14.65277344 27.11119141 -14.65277344 27.11119141 -16.1875 27.125 C-17.18523437 27.13660156 -18.18296875 27.14820313 -19.2109375 27.16015625 C-21.8125 27.0625 -21.8125 27.0625 -23.8125 26.0625 C-23.8395043 24.60426788 -23.85889787 23.14589325 -23.875 21.6875 C-23.88660156 20.87539062 -23.89820313 20.06328125 -23.91015625 19.2265625 C-23.8125 17.0625 -23.8125 17.0625 -22.8125 15.0625 C-18.8525 15.0625 -14.8925 15.0625 -10.8125 15.0625 C-10.8125 10.4425 -10.8125 5.8225 -10.8125 1.0625 C-6.8975196 0.27950392 -3.91358218 -0.04715159 0 0 Z " fill="#58EBE1" transform="translate(219.8125,133.9375)"/>
<path d="M0 0 C4.95 0 9.9 0 15 0 C15 6.6 15 13.2 15 20 C18.96 20 22.92 20 27 20 C27 30.89 27 41.78 27 53 C23.04 53 19.08 53 15 53 C15 52.67 15 52.34 15 52 C18.3 52 21.6 52 25 52 C25 42.1 25 32.2 25 22 C21.7 22 18.4 22 15 22 C14.67 22.66 14.34 23.32 14 24 C13.67 23.01 13.34 22.02 13 21 C8.71 20.67 4.42 20.34 0 20 C0 13.4 0 6.8 0 0 Z " fill="#21D7C8" transform="translate(249,212)"/>
<path d="M0 0 C0 31.02 0 62.04 0 94 C-4.29 94 -8.58 94 -13 94 C-14.85581966 92.14418034 -14.12004366 89.50601694 -14.12442017 87.03713989 C-14.12082489 86.18046722 -14.11722961 85.32379456 -14.11352539 84.44116211 C-14.11367142 83.54368759 -14.11381744 82.64621307 -14.1139679 81.72154236 C-14.11326842 78.74011866 -14.10547441 75.7587566 -14.09765625 72.77734375 C-14.09579219 70.71611058 -14.09436823 68.65487696 -14.09336853 66.59364319 C-14.08954237 61.1569599 -14.07971126 55.72030314 -14.06866455 50.28363037 C-14.05845253 44.74052286 -14.05387136 39.19741108 -14.04882812 33.65429688 C-14.03808908 22.76951957 -14.02101149 11.88476198 -14 1 C-9.81537205 -1.09231398 -4.67855628 0 0 0 Z M-11 1 C-11 31.36 -11 61.72 -11 93 C-7.7 93 -4.4 93 -1 93 C-0.97687798 81.15234827 -0.95908563 69.30470186 -0.94818783 57.4570322 C-0.94295869 51.95629138 -0.93586049 46.45556595 -0.92456055 40.95483398 C-0.91373275 35.6510344 -0.9077234 30.34724965 -0.90512276 25.04343987 C-0.90326831 23.01514388 -0.89964733 20.98684874 -0.89426994 18.95855904 C-0.88706094 16.12803486 -0.886009 13.29757282 -0.88647461 10.46704102 C-0.88287933 9.61971909 -0.87928406 8.77239716 -0.87557983 7.8993988 C-0.51762955 4.14494156 -0.51762955 4.14494156 -2 1 C-4.97 1 -7.94 1 -11 1 Z " fill="#23F1E1" transform="translate(263,306)"/>
<path d="M0 0 C6.27 0 12.54 0 19 0 C19 0.33 19 0.66 19 1 C13.39 1 7.78 1 2 1 C2 3.31 2 5.62 2 8 C8.27 8 14.54 8 21 8 C21 40.01 21 72.02 21 105 C6.48 105 -8.04 105 -23 105 C-23 109.29 -23 113.58 -23 118 C-20.3084375 117.9690625 -20.3084375 117.9690625 -17.5625 117.9375 C-15.70833878 117.9161878 -13.85287502 117.92773498 -12 118 C-11 119 -11 119 -10.88647461 122.23461914 C-10.88663369 123.66814126 -10.89232593 125.10166912 -10.90234375 126.53515625 C-10.9037587 127.28840683 -10.90517365 128.04165741 -10.90663147 128.81773376 C-10.91224624 131.2326956 -10.92480117 133.64756601 -10.9375 136.0625 C-10.9425131 137.69596221 -10.94707634 139.32942586 -10.95117188 140.96289062 C-10.96222046 144.97529585 -10.97949494 148.98763241 -11 153 C-11.33 153 -11.66 153 -12 153 C-12 142.11 -12 131.22 -12 120 C-16.29 120 -20.58 120 -25 120 C-25 114.72 -25 109.44 -25 104 C-10.48 104 4.04 104 19 104 C19 72.65 19 41.3 19 9 C12.73 9.33 6.46 9.66 0 10 C0 6.7 0 3.4 0 0 Z " fill="#0C413B" transform="translate(245,296)"/>
<path d="M0 0 C0.33 0 0.66 0 1 0 C1 5.28 1 10.56 1 16 C-3.29 16 -7.58 16 -12 16 C-12 18.64 -12 21.28 -12 24 C-7.71 24 -3.42 24 1 24 C1 41.49 1 58.98 1 77 C0.67 77 0.34 77 0 77 C-0.33 60.5 -0.66 44 -1 27 C-8.59 26.34 -16.18 25.68 -24 25 C-24 24.34 -24 23.68 -24 23 C-20.37 23 -16.74 23 -13 23 C-13 16.07 -13 9.14 -13 2 C-10.63386544 0.81693272 -9.13219264 0.86645392 -6.5 0.875 C-5.30890625 0.87113281 -5.30890625 0.87113281 -4.09375 0.8671875 C-2 1 -2 1 0 2 C0 1.34 0 0.68 0 0 Z " fill="#0DF7E3" transform="translate(223,135)"/>
<path d="M0 0 C3.96 0 7.92 0 12 0 C12 8.58 12 17.16 12 26 C8.04 26.33 4.08 26.66 0 27 C0 18.09 0 9.18 0 0 Z " fill="#F73247" transform="translate(395,450)"/>
<path d="M0 0 C2.97 0 5.94 0 9 0 C9 9.9 9 19.8 9 30 C5.7 30 2.4 30 -1 30 C-1.0246985 26.04900072 -1.04285923 22.09803126 -1.05493164 18.14697266 C-1.06244036 16.14093449 -1.0751447 14.13491798 -1.08789062 12.12890625 C-1.09111328 10.87207031 -1.09433594 9.61523438 -1.09765625 8.3203125 C-1.10289307 7.15773926 -1.10812988 5.99516602 -1.11352539 4.79736328 C-1 2 -1 2 0 0 Z " fill="#FC3146" transform="translate(365,234)"/>
<path d="M0 0 C0.33 0 0.66 0 1 0 C1 18.81 1 37.62 1 57 C4.3 57 7.6 57 11 57 C11 60.63 11 64.26 11 68 C8.36 68 5.72 68 3 68 C3 71.3 3 74.6 3 78 C4.16015625 77.89171875 4.16015625 77.89171875 5.34375 77.78125 C21.95196507 76.30131004 21.95196507 76.30131004 26 79 C26.29296875 81.3828125 26.29296875 81.3828125 26.1875 84.125 C26.16042969 85.03507812 26.13335937 85.94515625 26.10546875 86.8828125 C26.07066406 87.58148438 26.03585937 88.28015625 26 89 C20.70376361 90.2222084 16.32320939 89.72589219 11 89 C11 85.7 11 82.4 11 79 C8.8034375 79.0309375 8.8034375 79.0309375 6.5625 79.0625 C5.04167482 79.08392007 3.51928038 79.07179964 2 79 C1 78 1 78 0.90234375 75.49609375 C0.91394531 74.48675781 0.92554688 73.47742188 0.9375 72.4375 C0.94652344 71.42558594 0.95554687 70.41367187 0.96484375 69.37109375 C0.97644531 68.58863281 0.98804688 67.80617188 1 67 C3.64 66.67 6.28 66.34 9 66 C9.33 63.69 9.66 61.38 10 59 C9.36191406 59.01160156 8.72382813 59.02320313 8.06640625 59.03515625 C7.24011719 59.04417969 6.41382813 59.05320312 5.5625 59.0625 C4.73878906 59.07410156 3.91507812 59.08570313 3.06640625 59.09765625 C1 59 1 59 0 58 C-0.09376053 56.18944975 -0.1174411 54.37522799 -0.11352539 52.56225586 C-0.11344986 51.40112778 -0.11337433 50.23999969 -0.11329651 49.04368591 C-0.10813522 47.780168 -0.10297394 46.51665009 -0.09765625 45.21484375 C-0.0962413 43.92888809 -0.09482635 42.64293243 -0.09336853 41.31800842 C-0.08954418 37.89356557 -0.07971462 34.46916491 -0.06866455 31.04473877 C-0.05844864 27.55261811 -0.05387053 24.06049066 -0.04882812 20.56835938 C-0.03809227 13.71222222 -0.02101684 6.85611313 0 0 Z " fill="#D05761" transform="translate(363,306)"/>
<path d="M0 0 C2.29160319 -0.02692484 4.58329546 -0.04636124 6.875 -0.0625 C8.15117187 -0.07410156 9.42734375 -0.08570313 10.7421875 -0.09765625 C14 0 14 0 16 1 C16 2.32 16 3.64 16 5 C30.19 5 44.38 5 59 5 C59 9.95 59 14.9 59 20 C62.63 20 66.26 20 70 20 C70 32.21 70 44.42 70 57 C66.37 57 62.74 57 59 57 C59 56.34 59 55.68 59 55 C61.97 55 64.94 55 68 55 C68 44.77 68 34.54 68 24 C64.7 23.67 61.4 23.34 58 23 C56.05909174 21.05909174 56.60080565 17.52706098 56.4375 14.9375 C56.35371094 13.64714844 56.26992188 12.35679687 56.18359375 11.02734375 C56.12300781 10.02832031 56.06242187 9.02929688 56 8 C48.68705099 7.24923384 41.43094465 6.81600624 34.08203125 6.68359375 C33.09877365 6.66281265 32.11551605 6.64203156 31.10246277 6.62062073 C28.00586959 6.55598859 24.90920228 6.49664805 21.8125 6.4375 C19.69465423 6.39423236 17.57681557 6.35061566 15.45898438 6.30664062 C10.30606274 6.20039774 5.15306766 6.09889565 0 6 C0 4.02 0 2.04 0 0 Z " fill="#D8737E" transform="translate(350,394)"/>
<path d="M0 0 C3.96 0 7.92 0 12 0 C12 0.33 12 0.66 12 1 C8.37 1 4.74 1 1 1 C1.08378906 1.99902344 1.16757813 2.99804688 1.25390625 4.02734375 C1.35574219 5.31769531 1.45757812 6.60804688 1.5625 7.9375 C1.66691406 9.22527344 1.77132812 10.51304687 1.87890625 11.83984375 C1.91886719 12.88269531 1.95882812 13.92554688 2 15 C0.1043461 16.8956539 -3.29489028 16.36630149 -5.87109375 16.5234375 C-8.38472371 16.82873755 -8.38472371 16.82873755 -10 20 C-8.9275 19.95875 -7.855 19.9175 -6.75 19.875 C-3.34252515 19.9885825 -1.79260369 20.21273364 1 22 C1 23.98 1 25.96 1 28 C58.09 28 115.18 28 174 28 C174 28.33 174 28.66 174 29 C116.58 29 59.16 29 0 29 C0 27.02 0 25.04 0 23 C-0.85464844 23.01160156 -1.70929688 23.02320313 -2.58984375 23.03515625 C-3.69457031 23.04417969 -4.79929688 23.05320312 -5.9375 23.0625 C-7.03964844 23.07410156 -8.14179688 23.08570313 -9.27734375 23.09765625 C-12 23 -12 23 -13 22 C-13.14115161 19.32941149 -13.04247107 16.67567762 -13 14 C-8.71 14 -4.42 14 0 14 C0 9.38 0 4.76 0 0 Z " fill="#404949" transform="translate(220,449)"/>
<path d="M0 0 C3.96 0 7.92 0 12 0 C12 5.28 12 10.56 12 16 C16.29 16 20.58 16 25 16 C25 26.89 25 37.78 25 49 C20.71 49 16.42 49 12 49 C16 47 16 47 23 47 C23 37.43 23 27.86 23 18 C19.37 18 15.74 18 12 18 C11.67 17.01 11.34 16.02 11 15 C7.37 15 3.74 15 0 15 C0 10.05 0 5.1 0 0 Z " fill="#0BF8E4" transform="translate(208,400)"/>
<path d="M0 0 C2.97 0 5.94 0 9 0 C8.67 9.9 8.34 19.8 8 30 C5.03 30 2.06 30 -1 30 C-1.02896822 25.56251365 -1.04678788 21.12505153 -1.0625 16.6875 C-1.07087891 15.42486328 -1.07925781 14.16222656 -1.08789062 12.86132812 C-1.09111328 11.65283203 -1.09433594 10.44433594 -1.09765625 9.19921875 C-1.10289307 8.08377686 -1.10812988 6.96833496 -1.11352539 5.8190918 C-1 3 -1 3 0 0 Z " fill="#FB3248" transform="translate(410,418)"/>
<path d="M0 0 C4.95 0.33 9.9 0.66 15 1 C15 20.8 15 40.6 15 61 C18.96 61 22.92 61 27 61 C27 64.63 27 68.26 27 72 C23.37 72 19.74 72 16 72 C16 71.67 16 71.34 16 71 C19.465 70.505 19.465 70.505 23 70 C23.33 67.69 23.66 65.38 24 63 C20.7 63 17.4 63 14 63 C14 43.2 14 23.4 14 3 C10.04 2.67 6.08 2.34 2 2 C2 21.47 2 40.94 2 61 C4.97 61 7.94 61 11 61 C11 61.33 11 61.66 11 62 C7.7 62 4.4 62 1 62 C0.67 41.54 0.34 21.08 0 0 Z " fill="#D84150" transform="translate(390,134)"/>
<path d="M0 0 C3.63 0 7.26 0 11 0 C11 5.94 11 11.88 11 18 C7.37 18 3.74 18 0 18 C0 12.06 0 6.12 0 0 Z " fill="#05FAE6" transform="translate(251,213)"/>
<path d="M0 0 C3.63 0 7.26 0 11 0 C11.054138 2.24973447 11.09285491 4.49984383 11.125 6.75 C11.14820313 8.00296875 11.17140625 9.2559375 11.1953125 10.546875 C11.01537302 13.72820492 10.68998582 15.36521896 9 18 C2.84765625 18.09765625 2.84765625 18.09765625 1 18 C0 17 0 17 -0.09765625 13.18359375 C-0.09098089 11.60153318 -0.07901875 10.01948841 -0.0625 8.4375 C-0.05798828 7.63119141 -0.05347656 6.82488281 -0.04882812 5.99414062 C-0.03700518 3.99606244 -0.01906914 1.99802217 0 0 Z " fill="#F73247" transform="translate(352,213)"/>
<path d="M0 0 C3.09244792 0.03255208 6.18489583 0.06510417 9.27734375 0.09765625 C9.27734375 4.71765625 9.27734375 9.33765625 9.27734375 14.09765625 C4.98734375 14.09765625 0.69734375 14.09765625 -3.72265625 14.09765625 C-3.8203125 4.0390625 -3.8203125 4.0390625 -3.72265625 1.09765625 C-2.72265625 0.09765625 -2.72265625 0.09765625 0 0 Z " fill="#05FAE6" transform="translate(210.72265625,448.90234375)"/>
<path d="M0 0 C0.33 0 0.66 0 1 0 C1.33 2.64 1.66 5.28 2 8 C5.96 8.33 9.92 8.66 14 9 C14.33 11.31 14.66 13.62 15 16 C9.72 16 4.44 16 -1 16 C-1 13.36 -1 10.72 -1 8 C-3.97 7.67 -6.94 7.34 -10 7 C-10 5.02 -10 3.04 -10 1 C-9.36191406 1.01160156 -8.72382813 1.02320313 -8.06640625 1.03515625 C-7.24011719 1.04417969 -6.41382813 1.05320312 -5.5625 1.0625 C-4.32693359 1.07990234 -4.32693359 1.07990234 -3.06640625 1.09765625 C-1.00836062 1.23267348 -1.00836062 1.23267348 0 0 Z " fill="#4AEDE2" transform="translate(206,463)"/>
<path d="M0 0 C6.27 0 12.54 0 19 0 C19 0.33 19 0.66 19 1 C13.39 1 7.78 1 2 1 C2 3.31 2 5.62 2 8 C8.27 8 14.54 8 21 8 C21 40.01 21 72.02 21 105 C20.67 105 20.34 105 20 105 C20 73.32 20 41.64 20 9 C13.4 9.33 6.8 9.66 0 10 C0 6.7 0 3.4 0 0 Z " fill="#00130F" transform="translate(245,296)"/>
<path d="M0 0 C0.33 0 0.66 0 1 0 C1 6.27 1 12.54 1 19 C4.96 19 8.92 19 13 19 C13 30.88 13 42.76 13 55 C9.37 55 5.74 55 2 55 C2 64.57 2 74.14 2 84 C1.34 84 0.68 84 0 84 C0 73.77 0 63.54 0 53 C3.96 53 7.92 53 12 53 C12 42.11 12 31.22 12 20 C8.04 20 4.08 20 0 20 C0 13.4 0 6.8 0 0 Z " fill="#063F38" transform="translate(264,212)"/>
<path d="M0 0 C4.29 0 8.58 0 13 0 C13 0.33 13 0.66 13 1 C9.37 1 5.74 1 2 1 C2 2.65 2 4.3 2 6 C3.15628906 5.96519531 3.15628906 5.96519531 4.3359375 5.9296875 C5.33882812 5.91164062 6.34171875 5.89359375 7.375 5.875 C8.37273437 5.85179687 9.37046875 5.82859375 10.3984375 5.8046875 C13 6 13 6 15 8 C15.20254517 10.21463013 15.20254517 10.21463013 15.13525391 13.00048828 C15.11508209 14.04141632 15.09491028 15.08234436 15.0741272 16.15481567 C15.02583267 17.8454866 15.02583267 17.8454866 14.9765625 19.5703125 C14.95153656 20.72167694 14.92651062 21.87304138 14.90072632 23.05929565 C14.81834732 26.74815537 14.72182628 30.43649391 14.625 34.125 C14.5667788 36.62107224 14.50947515 39.11716607 14.453125 41.61328125 C14.31447109 47.74259972 14.15671917 53.87100994 14 60 C26.87 60 39.74 60 53 60 C53 60.33 53 60.66 53 61 C39.8 61 26.6 61 13 61 C13 43.51 13 26.02 13 8 C8.71 8 4.42 8 0 8 C0 5.36 0 2.72 0 0 Z " fill="#063E3A" transform="translate(211,151)"/>
<path d="M0 0 C0.33 0 0.66 0 1 0 C1 5.28 1 10.56 1 16 C-3.29 16 -7.58 16 -12 16 C-12 18.64 -12 21.28 -12 24 C-7.71 24 -3.42 24 1 24 C1 41.49 1 58.98 1 77 C0.67 77 0.34 77 0 77 C-0.33 60.5 -0.66 44 -1 27 C-8.59 26.34 -16.18 25.68 -24 25 C-24 24.34 -24 23.68 -24 23 C-20.37 23 -16.74 23 -13 23 C-13 20.36 -13 17.72 -13 15 C-8.71 15 -4.42 15 0 15 C0 10.05 0 5.1 0 0 Z " fill="#19B4A9" transform="translate(223,135)"/>
<path d="M0 0 C4.95 0 9.9 0 15 0 C15 2.97 15 5.94 15 9 C10.05 9 5.1 9 0 9 C0 6.03 0 3.06 0 0 Z " fill="#30B0A4" transform="translate(319,385)"/>
<path d="M0 0 C4.95 0 9.9 0 15 0 C15 2.97 15 5.94 15 9 C10.05 9 5.1 9 0 9 C0 6.03 0 3.06 0 0 Z " fill="#2DAAA0" transform="translate(278,296)"/>
<path d="M0 0 C7.71484375 -0.09765625 7.71484375 -0.09765625 10 0 C11 1 11 1 11.09765625 3.28515625 C11.04882812 7.14257812 11.04882812 7.14257812 11 11 C7.37 11.33 3.74 11.66 0 12 C0 8.04 0 4.08 0 0 Z " fill="#FA3246" transform="translate(396,402)"/>
<path d="M0 0 C0.33 0 0.66 0 1 0 C1 5.28 1 10.56 1 16 C5.29 16 9.58 16 14 16 C14 26.89 14 37.78 14 49 C9.71 49 5.42 49 1 49 C5 47 5 47 12 47 C12 37.43 12 27.86 12 18 C8.37 18 4.74 18 1 18 C0 17 0 17 -0.09765625 13.18359375 C-0.09098089 11.60153318 -0.07901875 10.01948841 -0.0625 8.4375 C-0.05798828 7.63119141 -0.05347656 6.82488281 -0.04882812 5.99414062 C-0.03700518 3.99606244 -0.01906914 1.99802217 0 0 Z " fill="#15C0B1" transform="translate(219,400)"/>
<path d="M0 0 C0.99 0.495 0.99 0.495 2 1 C2 32.02 2 63.04 2 95 C4.31 95.66 6.62 96.32 9 97 C9 97.66 9 98.32 9 99 C6.03 99 3.06 99 0 99 C0 66.33 0 33.66 0 0 Z " fill="#DB3C49" transform="translate(351,266)"/>
<path d="M0 0 C3.96 0 7.92 0 12 0 C12 10.89 12 21.78 12 33 C8.04 33 4.08 33 0 33 C0 42.24 0 51.48 0 61 C-0.33 61 -0.66 61 -1 61 C-1 51.1 -1 41.2 -1 31 C2.63 31 6.26 31 10 31 C9.98259766 29.00839844 9.98259766 29.00839844 9.96484375 26.9765625 C9.8594527 9.55410474 9.8594527 9.55410474 11 1 C7.37 1 3.74 1 0 1 C0 0.67 0 0.34 0 0 Z " fill="#3C040A" transform="translate(394,416)"/>
<path d="M0 0 C4.29 0 8.58 0 13 0 C13.09765625 6.15234375 13.09765625 6.15234375 13 8 C12 9 12 9 9.27734375 9.09765625 C7.62412109 9.08025391 7.62412109 9.08025391 5.9375 9.0625 C4.83277344 9.05347656 3.72804687 9.04445312 2.58984375 9.03515625 C1.30787109 9.01775391 1.30787109 9.01775391 0 9 C0 6.03 0 3.06 0 0 Z " fill="#1BE2CD" transform="translate(236,151)"/>
<path d="M0 0 C2.14576637 -0.02685938 4.29162645 -0.04633088 6.4375 -0.0625 C7.63246094 -0.07410156 8.82742188 -0.08570313 10.05859375 -0.09765625 C13 0 13 0 14 1 C14.1007812 3.36398468 14.13973215 5.69811311 14.1328125 8.0625 C14.13376923 8.76898682 14.13472595 9.47547363 14.13571167 10.20336914 C14.13639333 11.69970793 14.13454005 13.19604967 14.13037109 14.69238281 C14.12502257 16.99030157 14.13031651 19.28802486 14.13671875 21.5859375 C14.13605797 23.03645877 14.1347768 24.48697991 14.1328125 25.9375 C14.13483673 26.6291626 14.13686096 27.3208252 14.13894653 28.03344727 C14.11495224 32.88504776 14.11495224 32.88504776 13 34 C10.81707226 34.23481693 8.62796826 34.41363323 6.4375 34.5625 C5.23996094 34.64628906 4.04242188 34.73007812 2.80859375 34.81640625 C1.88175781 34.87699219 0.95492187 34.93757813 0 35 C0 34.01 0 33.02 0 32 C3.96 32 7.92 32 12 32 C12 22.1 12 12.2 12 2 C8.37 2 4.74 2 1 2 C0.67 1.34 0.34 0.68 0 0 Z " fill="#3EE3D4" transform="translate(249,232)"/>
<path d="M0 0 C13.53 0 27.06 0 41 0 C41 0.66 41 1.32 41 2 C28.13 2 15.26 2 2 2 C2 7.28 2 12.56 2 18 C1.34 18 0.68 18 0 18 C0 12.06 0 6.12 0 0 Z " fill="#E3B6B9" transform="translate(364,212)"/>
<path d="M0 0 C0.66 0.33 1.32 0.66 2 1 C1.88623383 3.12563103 1.75864369 5.2505261 1.625 7.375 C1.55539063 8.55835938 1.48578125 9.74171875 1.4140625 10.9609375 C1 14 1 14 -1 16 C-3.1640625 15.9765625 -3.1640625 15.9765625 -5.625 15.625 C-6.85089844 15.45871094 -6.85089844 15.45871094 -8.1015625 15.2890625 C-8.72804687 15.19367188 -9.35453125 15.09828125 -10 15 C-10 16.98 -10 18.96 -10 21 C-6.7 21 -3.4 21 0 21 C-0.33 21.99 -0.66 22.98 -1 24 C-4.96 24 -8.92 24 -13 24 C-14.125 14.25 -14.125 14.25 -13 12 C-8.71 12 -4.42 12 0 12 C0 8.04 0 4.08 0 0 Z " fill="#41F1E0" transform="translate(206,449)"/>
<path d="M0 0 C4.62 0 9.24 0 14 0 C14 2.64 14 5.28 14 8 C9.38 8 4.76 8 0 8 C0 5.36 0 2.72 0 0 Z " fill="#1DC4B2" transform="translate(257,463)"/>
<path d="M0 0 C3.96 0 7.92 0 12 0 C12 2.64 12 5.28 12 8 C10.35 8 8.7 8 7 8 C7 8.66 7 9.32 7 10 C5.00045254 10.04254356 2.99958364 10.04080783 1 10 C0 9 0 9 -0.09765625 6.93359375 C-0.06510417 4.62239583 -0.03255208 2.31119792 0 0 Z " fill="#E43A4F" transform="translate(375,385)"/>
<path d="M0 0 C4.29 0.33 8.58 0.66 13 1 C13 1.33 13 1.66 13 2 C9.37 2 5.74 2 2 2 C2 5.96 2 9.92 2 14 C7.445 13.505 7.445 13.505 13 13 C13 24.88 13 36.76 13 49 C12.67 49 12.34 49 12 49 C12 38.11 12 27.22 12 16 C8.04 16 4.08 16 0 16 C0 10.72 0 5.44 0 0 Z " fill="#BB2B3B" transform="translate(394,400)"/>
<path d="M0 0 C4.29 0 8.58 0 13 0 C13 11.88 13 23.76 13 36 C9.37 36 5.74 36 2 36 C2 35.67 2 35.34 2 35 C4.97 35 7.94 35 11 35 C11 24.11 11 13.22 11 2 C7.7 2 4.4 2 1 2 C0.67 1.34 0.34 0.68 0 0 Z " fill="#CF4B5A" transform="translate(364,230)"/>
<path d="M0 0 C3.96 0 7.92 0 12 0 C12 0.33 12 0.66 12 1 C8.37 1 4.74 1 1 1 C1.08378906 1.99902344 1.16757813 2.99804688 1.25390625 4.02734375 C1.35574219 5.31769531 1.45757812 6.60804688 1.5625 7.9375 C1.66691406 9.22527344 1.77132812 10.51304687 1.87890625 11.83984375 C1.91886719 12.88269531 1.95882812 13.92554688 2 15 C0.1043461 16.8956539 -3.29489028 16.36630149 -5.87109375 16.5234375 C-8.38472371 16.82873755 -8.38472371 16.82873755 -10 20 C-8.906875 19.95875 -7.81375 19.9175 -6.6875 19.875 C-3 20 -3 20 0 22 C-4.29 22 -8.58 22 -13 22 C-13 19.36 -13 16.72 -13 14 C-8.71 14 -4.42 14 0 14 C0 9.38 0 4.76 0 0 Z " fill="#063937" transform="translate(220,449)"/>
<path d="M0 0 C2.31243792 -0.02685412 4.6249627 -0.04632841 6.9375 -0.0625 C8.22527344 -0.07410156 9.51304687 -0.08570313 10.83984375 -0.09765625 C14 0 14 0 15 1 C15 2.65 15 4.3 15 6 C10.05 6 5.1 6 0 6 C0 4.02 0 2.04 0 0 Z " fill="#BA3A48" transform="translate(350,394)"/>
<path d="M0 0 C14.85 0 29.7 0 45 0 C45 0.33 45 0.66 45 1 C31.14 1 17.28 1 3 1 C3 6.28 3 11.56 3 17 C2.34 17 1.68 17 1 17 C0.67 11.39 0.34 5.78 0 0 Z " fill="#72CEC7" transform="translate(205,399)"/>
<path d="M0 0 C2.97 0 5.94 0 9 0 C9 2.97 9 5.94 9 9 C6.03 9 3.06 9 0 9 C0 6.03 0 3.06 0 0 Z " fill="#BC3746" transform="translate(310,385)"/>
<path d="M0 0 C0.33 0 0.66 0 1 0 C1 3.63 1 7.26 1 11 C4.96 11 8.92 11 13 11 C13 14.63 13 18.26 13 22 C9.37 22 5.74 22 2 22 C2 21.67 2 21.34 2 21 C5.465 20.505 5.465 20.505 9 20 C9.33 17.69 9.66 15.38 10 13 C6.7 13 3.4 13 0 13 C0 8.71 0 4.42 0 0 Z " fill="#E76F7F" transform="translate(404,184)"/>
<path d="M0 0 C3.09244792 0.03255208 6.18489583 0.06510417 9.27734375 0.09765625 C9.27734375 4.71765625 9.27734375 9.33765625 9.27734375 14.09765625 C4.98734375 14.09765625 0.69734375 14.09765625 -3.72265625 14.09765625 C-3.8203125 4.0390625 -3.8203125 4.0390625 -3.72265625 1.09765625 C-2.72265625 0.09765625 -2.72265625 0.09765625 0 0 Z M-2.72265625 1.09765625 C-2.72265625 4.72765625 -2.72265625 8.35765625 -2.72265625 12.09765625 C0.57734375 12.09765625 3.87734375 12.09765625 7.27734375 12.09765625 C7.27734375 8.46765625 7.27734375 4.83765625 7.27734375 1.09765625 C3.97734375 1.09765625 0.67734375 1.09765625 -2.72265625 1.09765625 Z " fill="#22DCCD" transform="translate(210.72265625,448.90234375)"/>
<path d="M0 0 C3.3 0 6.6 0 10 0 C10 2.31 10 4.62 10 7 C6.7 7 3.4 7 0 7 C0 4.69 0 2.38 0 0 Z " fill="#13EEDD" transform="translate(352,197)"/>
<path d="M0 0 C3.63 0 7.26 0 11 0 C11 1.98 11 3.96 11 6 C7.37 6 3.74 6 0 6 C0 4.02 0 2.04 0 0 Z " fill="#0AF8E5" transform="translate(199,152)"/>
<path d="M0 0 C2.625 -0.1875 2.625 -0.1875 5 0 C6.35439668 2.70879335 6.06501451 5.00933268 6 8 C3.29120665 9.35439668 0.99066732 9.06501451 -2 9 C-2.25 3.375 -2.25 3.375 0 0 Z " fill="#FB3145" transform="translate(355,375)"/>
<path d="M0 0 C3.3 0 6.6 0 10 0 C10 1.98 10 3.96 10 6 C6.37 6 2.74 6 -1 6 C-0.67 4.02 -0.34 2.04 0 0 Z " fill="#07FAE4" transform="translate(234,297)"/>
<path d="M0 0 C2.97 0 5.94 0 9 0 C9 2.31 9 4.62 9 7 C6.03 7 3.06 7 0 7 C0 4.69 0 2.38 0 0 Z " fill="#16E9D4" transform="translate(319,365)"/>
<path d="M0 0 C0.33 0 0.66 0 1 0 C1 8.91 1 17.82 1 27 C-9.125 27 -9.125 27 -14 26 C-11 24 -11 24 0 24 C0 16.08 0 8.16 0 0 Z " fill="#DB5866" transform="translate(408,452)"/>
<path d="M0 0 C3.96 0 7.92 0 12 0 C12 1.65 12 3.3 12 5 C8.04 5 4.08 5 0 5 C0 3.35 0 1.7 0 0 Z " fill="#F23447" transform="translate(391,206)"/>
<path d="M0 0 C1.47906892 -0.02689216 2.95827483 -0.04634621 4.4375 -0.0625 C5.26121094 -0.07410156 6.08492187 -0.08570313 6.93359375 -0.09765625 C9 0 9 0 10 1 C10 2.65 10 4.3 10 6 C6.7 6 3.4 6 0 6 C0 4.02 0 2.04 0 0 Z " fill="#09F8E4" transform="translate(196,464)"/>
<path d="M0 0 C6.27 0 12.54 0 19 0 C19 0.33 19 0.66 19 1 C13.39 1 7.78 1 2 1 C2 3.31 2 5.62 2 8 C7.61 8 13.22 8 19 8 C19 8.33 19 8.66 19 9 C9.595 9.495 9.595 9.495 0 10 C0 6.7 0 3.4 0 0 Z " fill="#0A514E" transform="translate(245,296)"/>
<path d="M0 0 C4.29 0 8.58 0 13 0 C13 0.33 13 0.66 13 1 C9.37 1 5.74 1 2 1 C2 2.65 2 4.3 2 6 C3.15628906 5.96519531 3.15628906 5.96519531 4.3359375 5.9296875 C5.33882812 5.91164062 6.34171875 5.89359375 7.375 5.875 C8.37273437 5.85179687 9.37046875 5.82859375 10.3984375 5.8046875 C13 6 13 6 15 8 C14.625 10.125 14.625 10.125 14 12 C13.67 11.01 13.34 10.02 13 9 C8.71 8.67 4.42 8.34 0 8 C0 5.36 0 2.72 0 0 Z " fill="#00332D" transform="translate(211,151)"/>
<path d="M0 0 C1.46373047 0.01353516 1.46373047 0.01353516 2.95703125 0.02734375 C4.06111328 0.04474609 4.06111328 0.04474609 5.1875 0.0625 C4.1975 0.5575 4.1975 0.5575 3.1875 1.0625 C3.1875 1.7225 3.1875 2.3825 3.1875 3.0625 C-1.1025 3.0625 -5.3925 3.0625 -9.8125 3.0625 C-9.8125 7.3525 -9.8125 11.6425 -9.8125 16.0625 C-14.1025 16.0625 -18.3925 16.0625 -22.8125 16.0625 C-22.8125 15.7325 -22.8125 15.4025 -22.8125 15.0625 C-18.8525 15.0625 -14.8925 15.0625 -10.8125 15.0625 C-10.8125 10.4425 -10.8125 5.8225 -10.8125 1.0625 C-6.8975196 0.27950392 -3.91358218 -0.04715159 0 0 Z " fill="#71F8EE" transform="translate(219.8125,133.9375)"/>
<path d="M0 0 C0.33 0 0.66 0 1 0 C1 7.92 1 15.84 1 24 C-2.63 24 -6.26 24 -10 24 C-10 23.34 -10 22.68 -10 22 C-7.03 22 -4.06 22 -1 22 C-0.67 14.74 -0.34 7.48 0 0 Z " fill="#E16770" transform="translate(419,427)"/>
<path d="M0 0 C0.33 0 0.66 0 1 0 C1.33 2.64 1.66 5.28 2 8 C5.96 8.33 9.92 8.66 14 9 C14.33 11.31 14.66 13.62 15 16 C11.04 16 7.08 16 3 16 C3 15.67 3 15.34 3 15 C6.3 15 9.6 15 13 15 C13 13.35 13 11.7 13 10 C9.37 10 5.74 10 2 10 C2 10.99 2 11.98 2 13 C1.34 13 0.68 13 0 13 C-1.29676812 8.38926889 -0.71109139 4.66159911 0 0 Z " fill="#2BCFC1" transform="translate(206,463)"/>
<path d="M0 0 C0.33 0 0.66 0 1 0 C1 2.31 1 4.62 1 7 C4.3 7 7.6 7 11 7 C11 4.69 11 2.38 11 0 C11.66 0 12.32 0 13 0 C13.09765625 6.15234375 13.09765625 6.15234375 13 8 C12 9 12 9 9.27734375 9.09765625 C7.62412109 9.08025391 7.62412109 9.08025391 5.9375 9.0625 C4.83277344 9.05347656 3.72804687 9.04445312 2.58984375 9.03515625 C1.30787109 9.01775391 1.30787109 9.01775391 0 9 C0 6.03 0 3.06 0 0 Z " fill="#1C8A83" transform="translate(236,151)"/>
<path d="M0 0 C2.97 0 5.94 0 9 0 C9 1.65 9 3.3 9 5 C6.03 5 3.06 5 0 5 C0 3.35 0 1.7 0 0 Z " fill="#08F8E5" transform="translate(322,387)"/>
<path d="M0 0 C2.97 0 5.94 0 9 0 C9 1.65 9 3.3 9 5 C6.03 5 3.06 5 0 5 C0 3.35 0 1.7 0 0 Z " fill="#0AF7E4" transform="translate(281,298)"/>
<path d="M0 0 C4.29 0.33 8.58 0.66 13 1 C13 1.66 13 2.32 13 3 C9.04 3 5.08 3 1 3 C1 5.64 1 8.28 1 11 C0.34 11 -0.32 11 -1 11 C-1.0270043 9.54176788 -1.04639787 8.08339325 -1.0625 6.625 C-1.07410156 5.81289062 -1.08570313 5.00078125 -1.09765625 4.1640625 C-1 2 -1 2 0 0 Z " fill="#032B2B" transform="translate(235,148)"/>
<path d="M0 0 C3.63 0 7.26 0 11 0 C11 1.32 11 2.64 11 4 C7.37 4 3.74 4 0 4 C0 2.68 0 1.36 0 0 Z " fill="#ED3649" transform="translate(352,395)"/>
<path d="M0 0 C1.65 0 3.3 0 5 0 C5 2.97 5 5.94 5 9 C3.35 8.67 1.7 8.34 0 8 C0 5.36 0 2.72 0 0 Z " fill="#912530" transform="translate(273,296)"/>
<path d="M0 0 C1.11375 0.556875 1.11375 0.556875 2.25 1.125 C2.25 4.425 2.25 7.725 2.25 11.125 C0.27 11.455 -1.71 11.785 -3.75 12.125 C-4.08 11.135 -4.41 10.145 -4.75 9.125 C-3.1 9.125 -1.45 9.125 0.25 9.125 C0.25 6.485 0.25 3.845 0.25 1.125 C-2.06 1.125 -4.37 1.125 -6.75 1.125 C-4.02098495 -0.69434337 -3.21400584 -1.02263822 0 0 Z " fill="#E3676D" transform="translate(386.75,383.875)"/>
<path d="M0 0 C2.64 0 5.28 0 8 0 C8 1.65 8 3.3 8 5 C5.36 5 2.72 5 0 5 C0 3.35 0 1.7 0 0 Z " fill="#FC3147" transform="translate(377,387)"/>
<path d="M0 0 C2.64 0 5.28 0 8 0 C8 1.65 8 3.3 8 5 C5.36 5 2.72 5 0 5 C0 3.35 0 1.7 0 0 Z " fill="#FC3046" transform="translate(404,198)"/>
<path d="M0 0 C0.66 0 1.32 0 2 0 C2.042721 1.66611905 2.04063832 3.33382885 2 5 C0.12175109 6.87824891 -3.03935276 6.39102397 -5.5625 6.5625 C-6.76003906 6.64628906 -7.95757812 6.73007812 -9.19140625 6.81640625 C-10.11824219 6.87699219 -11.04507813 6.93757813 -12 7 C-12 6.01 -12 5.02 -12 4 C-8.04 4 -4.08 4 0 4 C0 2.68 0 1.36 0 0 Z " fill="#65F4E8" transform="translate(261,260)"/>
<path d="M0 0 C4.62 0 9.24 0 14 0 C14 0.66 14 1.32 14 2 C12.42439993 2.44501681 10.83889511 2.85507231 9.25 3.25 C8.36828125 3.48203125 7.4865625 3.7140625 6.578125 3.953125 C5.72734375 3.96859375 4.8765625 3.9840625 4 4 C2.68 2.68 1.36 1.36 0 0 Z " fill="#061D21" transform="translate(319,394)"/>
<path d="M0 0 C1.98 0 3.96 0 6 0 C6.33 1.65 6.66 3.3 7 5 C4.69 5 2.38 5 0 5 C0 3.35 0 1.7 0 0 Z " fill="#FC2E45" transform="translate(364,366)"/>
<path d="M0 0 C4.29 0 8.58 0 13 0 C13 0.66 13 1.32 13 2 C9.37 2 5.74 2 2 2 C1.67 3.32 1.34 4.64 1 6 C0.67 5.67 0.34 5.34 0 5 C0 3.35 0 1.7 0 0 Z " fill="#39EAD8" transform="translate(197,150)"/>
<path d="M0 0 C0 1.65 0 3.3 0 5 C-2.31 5 -4.62 5 -7 5 C-7 3.68 -7 2.36 -7 1 C-4 0 -4 0 0 0 Z " fill="#07F9E6" transform="translate(246,152)"/>
<path d="M0 0 C3.96 0.33 7.92 0.66 12 1 C12 4.3 12 7.6 12 11 C11.67 11 11.34 11 11 11 C11 8.36 11 5.72 11 3 C9.02 3.33 7.04 3.66 5 4 C5 3.34 5 2.68 5 2 C3.35 2 1.7 2 0 2 C0 1.34 0 0.68 0 0 Z " fill="#180001" transform="translate(393,416)"/>
<path d="M0 0 C3.3 0 6.6 0 10 0 C10 0.99 10 1.98 10 3 C6.7 3 3.4 3 0 3 C0 2.01 0 1.02 0 0 Z " fill="#08F9E4" transform="translate(208,473)"/>
<path d="M0 0 C0.33 0 0.66 0 1 0 C1.33 2.31 1.66 4.62 2 7 C4.31 7.66 6.62 8.32 9 9 C9 9.66 9 10.32 9 11 C6.03 11 3.06 11 0 11 C0 7.37 0 3.74 0 0 Z " fill="#C03042" transform="translate(351,354)"/>
<path d="M0 0 C1.64350079 3.28700157 2.41321669 5.47930015 3 9 C6.3 9 9.6 9 13 9 C13 9.33 13 9.66 13 10 C11.20841511 10.02696365 9.41671527 10.04637917 7.625 10.0625 C6.62726563 10.07410156 5.62953125 10.08570313 4.6015625 10.09765625 C2 10 2 10 0 9 C0 6.03 0 3.06 0 0 Z " fill="#83F7F2" transform="translate(196,151)"/>
<path d="M0 0 C3.63 0 7.26 0 11 0 C11 0.66 11 1.32 11 2 C10.38511719 2.04898437 9.77023438 2.09796875 9.13671875 2.1484375 C8.32847656 2.22320312 7.52023438 2.29796875 6.6875 2.375 C5.48673828 2.47941406 5.48673828 2.47941406 4.26171875 2.5859375 C1.72775559 2.89564426 1.72775559 2.89564426 -1 5 C-0.67 3.35 -0.34 1.7 0 0 Z " fill="#6BF4EA" transform="translate(193,461)"/>
<path d="M0 0 C4.29 0 8.58 0 13 0 C13.33 0.99 13.66 1.98 14 3 C11.8535247 2.88655624 9.70779408 2.75893655 7.5625 2.625 C6.36753906 2.55539063 5.17257813 2.48578125 3.94140625 2.4140625 C2.97074219 2.27742187 2.00007812 2.14078125 1 2 C0.67 1.34 0.34 0.68 0 0 Z " fill="#68F2EC" transform="translate(249,232)"/>
<path d="M0 0 C4.29 0 8.58 0 13 0 C12.67 1.32 12.34 2.64 12 4 C11.67 3.67 11.34 3.34 11 3 C8.41977858 2.71778828 5.83969815 2.55179803 3.25 2.37890625 C2.5075 2.25386719 1.765 2.12882813 1 2 C0.67 1.34 0.34 0.68 0 0 Z " fill="#C7596B" transform="translate(364,230)"/>
<path d="M0 0 C2.97 0 5.94 0 9 0 C9 0.99 9 1.98 9 3 C6.03 3 3.06 3 0 3 C0 2.01 0 1.02 0 0 Z " fill="#06F9E4" transform="translate(259,466)"/>
<path d="M0 0 C1.65 0 3.3 0 5 0 C5 1.65 5 3.3 5 5 C3.35 5 1.7 5 0 5 C0 3.35 0 1.7 0 0 Z " fill="#F93248" transform="translate(312,387)"/>
<path d="M0 0 C1.23556641 0.01740234 1.23556641 0.01740234 2.49609375 0.03515625 C3.32238281 0.04417969 4.14867187 0.05320313 5 0.0625 C5.63808594 0.07410156 6.27617187 0.08570313 6.93359375 0.09765625 C6.93359375 0.42765625 6.93359375 0.75765625 6.93359375 1.09765625 C5.23203125 1.31421875 5.23203125 1.31421875 3.49609375 1.53515625 C0.12582174 1.70937103 0.12582174 1.70937103 -1.06640625 3.09765625 C-3.25280078 3.17024571 -5.44141014 3.18139408 -7.62890625 3.16015625 C-9.42521484 3.14662109 -9.42521484 3.14662109 -11.2578125 3.1328125 C-12.18464844 3.12121094 -13.11148437 3.10960937 -14.06640625 3.09765625 C-14.06640625 2.76765625 -14.06640625 2.43765625 -14.06640625 2.09765625 C-13.28394531 2.03707031 -12.50148438 1.97648438 -11.6953125 1.9140625 C-10.68339844 1.83027344 -9.67148437 1.74648437 -8.62890625 1.66015625 C-7.61957031 1.57894531 -6.61023438 1.49773437 -5.5703125 1.4140625 C-2.92346049 1.0795929 -2.54074258 0.1200729 0 0 Z " fill="#D83243" transform="translate(405.06640625,202.90234375)"/>
<path d="M0 0 C0.90105469 0.01804687 1.80210937 0.03609375 2.73046875 0.0546875 C3.41753906 0.07789063 4.10460937 0.10109375 4.8125 0.125 C3.8225 0.455 2.8325 0.785 1.8125 1.125 C1.8125 1.785 1.8125 2.445 1.8125 3.125 C-1.4875 2.795 -4.7875 2.465 -8.1875 2.125 C-4.87379 -0.08414 -3.8428979 -0.09981553 0 0 Z " fill="#D94C5A" transform="translate(402.1875,475.875)"/>
<path d="M0 0 C2.64 0 5.28 0 8 0 C8 2.31 8 4.62 8 7 C7.01 7.495 7.01 7.495 6 8 C5.67 6.02 5.34 4.04 5 2 C3.35 1.67 1.7 1.34 0 1 C0 0.67 0 0.34 0 0 Z " fill="#DF3A4C" transform="translate(365,365)"/>
<path d="M0 0 C0.33 0.99 0.66 1.98 1 3 C-2.63 3 -6.26 3 -10 3 C-4 0 -4 0 0 0 Z " fill="#001616" transform="translate(329,361)"/>
<path d="M0 0 C0.99 0 1.98 0 3 0 C3 2.31 3 4.62 3 7 C2.01 6.67 1.02 6.34 0 6 C0 4.02 0 2.04 0 0 Z " fill="#D53D56" transform="translate(275,297)"/>
<path d="M0 0 C0.66 0 1.32 0 2 0 C2.33 2.31 2.66 4.62 3 7 C2.01 7.33 1.02 7.66 0 8 C0 5.36 0 2.72 0 0 Z " fill="#CC2E40" transform="translate(360,365)"/>
</svg>
